<svg xmlns="http://www.w3.org/2000/svg" viewBox="0 0 429.35 431.06"><defs><style>.f62709ae-e052-45d2-903b-94579ef16802{fill:#f9edd8;stroke:#f9edd8;}.bcdc1249-cff7-42fd-9389-abc8215162e8,.f62709ae-e052-45d2-903b-94579ef16802{stroke-miterlimit:10;}.bcdc1249-cff7-42fd-9389-abc8215162e8{fill:#a28448;stroke:#a28448;}</style></defs><g id="e108c9f5-9693-4469-8beb-96b5b78250a7" data-name="Layer 2"><g id="bbf94620-bf4a-41b3-8faa-dd7875e7fa3a" data-name="Layer 1"><ellipse class="f62709ae-e052-45d2-903b-94579ef16802" cx="139.94" cy="381.26" rx="27.9" ry="26.53" transform="translate(-266.16 376.34) rotate(-69.15)"/><path class="f62709ae-e052-45d2-903b-94579ef16802" d="M226.87,278c4.53,10.18,4.31,37-12.39,66.93-7.72,13.83-31.45,56.33-79.36,66.21-46.63,9.63-84.73-18.12-94-33-2.31-3.73-7.66-12.35-4.42-18.21,1.52-2.74,4.9-4.87,7.79-4.39,4.71.8,6.85,8.39,7.47,10.2,5,14.51,45,39.91,86,30.93,59.61-13.06,83.22-90.48,75-107.4-.83-1.71-5-9-2.28-14.64,1.48-3,4.92-5.47,8.09-5.19C223.23,269.78,225.73,275.4,226.87,278Z"/><ellipse class="f62709ae-e052-45d2-903b-94579ef16802" cx="51.64" cy="189.59" rx="27.9" ry="26.53" transform="translate(-23.77 8.14) rotate(-7.33)"/><path class="f62709ae-e052-45d2-903b-94579ef16802" d="M183.74,217.44c-6.83,8.8-30.61,21.29-64.84,20.69-15.85-.28-64.51-1.13-95.85-38.69C-7.45,162.88-1,116.2,7.79,101c2.2-3.8,7.27-12.59,14-12.5,3.12,0,6.61,2,7.54,4.8,1.52,4.52-4.16,10-5.46,11.39C13.41,116,9.94,163.26,37.21,195.15c39.66,46.37,119,30.62,130.06,15.36,1.12-1.54,5.56-8.71,11.83-8.93,3.36-.11,7.14,1.75,8.39,4.68C189.24,210.36,185.46,215.23,183.74,217.44Z"/><ellipse class="f62709ae-e052-45d2-903b-94579ef16802" cx="237.23" cy="28.39" rx="26.53" ry="27.9" transform="translate(-1.43 17.28) rotate(-4.16)"/><ellipse class="f62709ae-e052-45d2-903b-94579ef16802" cx="401.23" cy="143.19" rx="27.9" ry="26.53" transform="translate(-21.34 197.23) rotate(-26.93)"/><ellipse class="f62709ae-e052-45d2-903b-94579ef16802" cx="369.49" cy="334.23" rx="26.53" ry="27.9" transform="translate(-118.7 433.73) rotate(-53.65)"/><path class="f62709ae-e052-45d2-903b-94579ef16802" d="M293.19,222.85c11-1.64,36.84,5.75,61.18,29.83,11.27,11.14,45.88,45.36,42.6,94.17-3.18,47.51-40.1,76.8-56.94,81.73-4.21,1.23-13.95,4.08-18.73-.62-2.23-2.18-3.39-6-2.15-8.67,2-4.32,9.92-4.36,11.82-4.47,15.33-.95,50.5-32.74,52.8-74.64,3.34-60.93-64.95-104.37-83.46-100.94-1.87.35-10,2.46-14.72-1.71-2.51-2.23-3.95-6.2-2.84-9.18C284.32,224.18,290.41,223.27,293.19,222.85Z"/><polyline class="bcdc1249-cff7-42fd-9389-abc8215162e8" points="288.28 320.49 314.45 181.17 161.83 180.65 182.68 321.79 288.11 321.79"/><polyline class="bcdc1249-cff7-42fd-9389-abc8215162e8" points="157.36 167.15 317.51 167.15 320.5 154.36 155.65 154.36 153.5 154.36"/><polyline class="bcdc1249-cff7-42fd-9389-abc8215162e8" points="311.51 154.36 312.92 149.35 317.69 132.32 163.45 130.79 160.21 140 299.83 140 296.59 153.8"/><line class="bcdc1249-cff7-42fd-9389-abc8215162e8" x1="319.22" y1="130.79" x2="163.45" y2="130.79"/></g></g></svg>