<svg xmlns="http://www.w3.org/2000/svg" viewBox="0 0 490.71 451.42"><defs><style>.a3434d6c-20ae-4abd-8369-5daf42b22265{fill:#f9edd8;stroke:#f9edd8;}.a3434d6c-20ae-4abd-8369-5daf42b22265,.e8d33810-4d20-4c23-85ab-28660127f363{stroke-miterlimit:10;}.e8d33810-4d20-4c23-85ab-28660127f363{fill:#a28448;stroke:#a28448;}</style></defs><g id="a56ff337-fe86-46f0-85ae-12491a18c514" data-name="Layer 2"><g id="b4c5141d-97ae-4e15-aadd-48253b31c2db" data-name="Layer 1"><ellipse class="a3434d6c-20ae-4abd-8369-5daf42b22265" cx="345.64" cy="401.62" rx="27.24" ry="28.17" transform="translate(-181.78 350.68) rotate(-43.77)"/><path class="a3434d6c-20ae-4abd-8369-5daf42b22265" d="M255.5,298.33c-4.69,10.18-4.47,37,12.84,66.93,8,13.83,32.62,56.33,82.3,66.21,48.34,9.63,87.84-18.12,97.43-33,2.39-3.73,7.94-12.35,4.58-18.21-1.57-2.74-5.08-4.88-8.07-4.39-4.89.8-7.11,8.39-7.75,10.2-5.2,14.51-46.7,39.91-89.21,30.93-61.8-13.06-86.28-90.48-77.72-107.4.87-1.71,5.24-9,2.37-14.64-1.54-3-5.1-5.47-8.39-5.19C259.28,290.14,256.68,295.76,255.5,298.33Z"/><ellipse class="a3434d6c-20ae-4abd-8369-5daf42b22265" cx="437.19" cy="209.95" rx="26.53" ry="28.92" transform="translate(195.3 630.31) rotate(-85.73)"/><path class="a3434d6c-20ae-4abd-8369-5daf42b22265" d="M300.22,237.8c7.09,8.8,31.74,21.29,67.23,20.69,16.43-.28,66.89-1.13,99.38-38.69,31.63-36.56,24.92-83.24,15.82-98.43-2.27-3.8-7.54-12.59-14.48-12.5-3.24,0-6.85,2-7.82,4.8-1.58,4.52,4.32,10,5.66,11.39,10.81,11.28,14.42,58.56-13.86,90.45C411,261.88,328.72,246.13,317.3,230.87c-1.16-1.54-5.77-8.71-12.27-8.93-3.48-.11-7.41,1.75-8.7,4.68C294.51,230.72,298.43,235.59,300.22,237.8Z"/><ellipse class="a3434d6c-20ae-4abd-8369-5daf42b22265" cx="244.76" cy="48.75" rx="27.92" ry="27.49" transform="translate(138.17 274.41) rotate(-75.98)"/><path class="a3434d6c-20ae-4abd-8369-5daf42b22265" d="M281.18,179.11c8.71-7.31,20.28-31.74,17.69-65.89-1.19-15.81-4.86-64.35-45.55-93.56C213.72-8.77,165.76.27,150.54,9.87c-3.8,2.4-12.61,8-12.13,14.64.22,3.12,2.47,6.49,5.39,7.26,4.78,1.27,10.12-4.71,11.49-6.08,11.07-11,59.82-17.12,94.4,8.35,50.29,37,38.53,117.17,23.36,129-1.53,1.2-8.69,6-8.56,12.31.07,3.35,2.22,7,5.33,8.12C274.16,185,279,181,281.18,179.11Z"/><ellipse class="a3434d6c-20ae-4abd-8369-5daf42b22265" cx="74.72" cy="163.55" rx="26.65" ry="28.79" transform="translate(-103.01 190.79) rotate(-74.16)"/><path class="a3434d6c-20ae-4abd-8369-5daf42b22265" d="M213.44,181.62c-3.61-10.58-22.5-30.32-56.14-41.24-15.58-5-63.41-20.57-107.08,4.3C7.71,168.89-2.21,215,1.08,232.29c.82,4.31,2.73,14.3,9.3,16.46,3.07,1,7.16.31,9-2,3.06-3.75-.58-10.81-1.36-12.57-6.27-14.11,6.77-59.82,44.51-80.72,54.86-30.38,126.93,11.08,132.38,29.16.55,1.83,2.4,10.06,8.46,12.38,3.23,1.23,7.58.74,9.82-1.6C216.35,190.14,214.35,184.29,213.44,181.62Z"/><ellipse class="a3434d6c-20ae-4abd-8369-5daf42b22265" cx="107.62" cy="354.59" rx="28.69" ry="26.74" transform="translate(-123.02 64.55) rotate(-21.61)"/><path class="a3434d6c-20ae-4abd-8369-5daf42b22265" d="M186.74,243.21c-11.42-1.64-38.2,5.75-63.44,29.83-11.68,11.14-47.57,45.36-44.17,94.17,3.3,47.51,41.58,76.8,59,81.73,4.36,1.23,14.47,4.08,19.42-.62,2.31-2.18,3.51-6,2.23-8.67-2.1-4.32-10.29-4.36-12.26-4.47-15.89-.95-52.36-32.74-54.74-74.64-3.47-60.93,67.34-104.37,86.53-100.94,1.94.35,10.4,2.46,15.27-1.71,2.6-2.23,4.1-6.2,2.94-9.18C195.93,244.54,189.62,243.63,186.74,243.21Z"/><path class="e8d33810-4d20-4c23-85ab-28660127f363" d="M312.16,162.9l-5-3.09-127,195.34s6.56,18.9,23.36,14.48L312.16,162.9"/><path class="e8d33810-4d20-4c23-85ab-28660127f363" d="M207.59,137.53l-5.25,3.41L321.17,369.48s20.56,3.23,24.57-15.89L207.59,137.53"/><ellipse class="e8d33810-4d20-4c23-85ab-28660127f363" cx="199.9" cy="130.11" rx="27.47" ry="41.68" transform="translate(-38.03 113.44) rotate(-29.05)"/><path class="e8d33810-4d20-4c23-85ab-28660127f363" d="M220.86,166.13s20.16-18.35,2.23-38.63"/><path class="e8d33810-4d20-4c23-85ab-28660127f363" d="M222.54,165.43s-25,10.85-34.37-15"/><polygon class="e8d33810-4d20-4c23-85ab-28660127f363" points="329.17 163.93 296.9 142.39 287.04 161.05 319.31 182.58 329.17 163.93"/><line class="e8d33810-4d20-4c23-85ab-28660127f363" x1="296.9" y1="142.39" x2="321.23" y2="96.34"/><line class="e8d33810-4d20-4c23-85ab-28660127f363" x1="306.91" y1="149.07" x2="331.25" y2="103.02"/><line class="e8d33810-4d20-4c23-85ab-28660127f363" x1="318.19" y1="156.6" x2="342.52" y2="110.55"/><line class="e8d33810-4d20-4c23-85ab-28660127f363" x1="329.17" y1="163.93" x2="353.5" y2="117.88"/><line class="e8d33810-4d20-4c23-85ab-28660127f363" x1="298.19" y1="143.25" x2="322.52" y2="97.2"/><polyline class="e8d33810-4d20-4c23-85ab-28660127f363" points="309.04 150.49 308.08 149.85 332.42 103.81"/><line class="e8d33810-4d20-4c23-85ab-28660127f363" x1="319.89" y1="157.73" x2="344.22" y2="111.69"/><line class="e8d33810-4d20-4c23-85ab-28660127f363" x1="327.76" y1="162.99" x2="352.09" y2="116.94"/><path class="e8d33810-4d20-4c23-85ab-28660127f363" d="M320.58,97.52c.24-.29.88-1,1.26-1,.58,0,0,1.73,0,2"/><path class="e8d33810-4d20-4c23-85ab-28660127f363" d="M330.29,104.51c.3-.37,1.06-1.31,1.46-1.35.62-.07-.15,2.07-.27,2.37"/><path class="e8d33810-4d20-4c23-85ab-28660127f363" d="M342.05,111.63c.26-.27.93-.95,1.35-.91.67.07.19,1.83.12,2.08"/><path class="e8d33810-4d20-4c23-85ab-28660127f363" d="M351.71,117.55c.19-.16.68-.56,1.05-.47.57.13.38,1.33.35,1.5"/></g></g></svg>